<?xml version="1.0" encoding="iso-8859-1"?>
<!-- Generator: Adobe Illustrator 18.1.1, SVG Export Plug-In . SVG Version: 6.00 Build 0)  -->
<svg version="1.1" id="Capa_1" xmlns="http://www.w3.org/2000/svg" xmlns:xlink="http://www.w3.org/1999/xlink" x="0px" y="0px"
	 viewBox="0 0 438.976 438.976" style="enable-background:new 0 0 438.976 438.976;" xml:space="preserve">
<g>
	<circle cx="326.253" cy="219.473" r="12.456"/>
	<circle cx="326.253" cy="290.648" r="12.456"/>
	<circle cx="361.84" cy="255.061" r="12.456"/>
	<circle cx="290.665" cy="255.061" r="12.456"/>
	<polygon points="125.808,207.017 99.647,207.017 99.647,241.983 64.686,241.983 64.686,268.139 99.647,268.139 99.647,303.105 
		125.808,303.105 125.808,268.139 160.769,268.139 160.769,241.983 125.808,241.983 	"/>
	<rect x="174.517" y="305.18" width="24.911" height="12.515"/>
	<rect x="239.552" y="305.18" width="24.911" height="12.515"/>
	<path d="M376.074,138.779h-93.68V96.074h-49.822V67.633h-26.16v28.441h-49.826v42.705H62.902C28.22,138.779,0,166.995,0,201.679
		v106.762c0,34.684,28.22,62.902,62.902,62.902h313.172c34.682,0,62.902-28.218,62.902-62.902V201.679
		C438.976,166.995,410.756,138.779,376.074,138.779z M182.746,122.23h73.487v16.549h-73.487V122.23z M412.816,308.441
		c0,20.261-16.481,36.746-36.742,36.746H62.902c-20.261,0-36.742-16.485-36.742-36.746V201.679
		c0-20.261,16.481-36.744,36.742-36.744h93.684h125.808h93.68c20.261,0,36.742,16.483,36.742,36.744V308.441z"/>
</g>
<g>
</g>
<g>
</g>
<g>
</g>
<g>
</g>
<g>
</g>
<g>
</g>
<g>
</g>
<g>
</g>
<g>
</g>
<g>
</g>
<g>
</g>
<g>
</g>
<g>
</g>
<g>
</g>
<g>
</g>
</svg>
